<svg xmlns="http://www.w3.org/2000/svg" viewBox="0 0 24 24" fill="none" aria-hidden="true">
  <path fill="#E01E5A" d="M5.2 14.4a2.4 2.4 0 0 1-2.4 2.4 2.4 2.4 0 1 1 2.4-2.4z"/>
  <path fill="#E01E5A" d="M8.4 16.8a2.4 2.4 0 0 1 2.4-2.4v2.4a2.4 2.4 0 1 1-2.4 0z"/>
  <path fill="#36C5F0" d="M9.6 5.2a2.4 2.4 0 0 1 2.4-2.4 2.4 2.4 0 1 1-2.4 2.4z"/>
  <path fill="#36C5F0" d="M12 8.4a2.4 2.4 0 0 1-2.4 2.4V8.4A2.4 2.4 0 1 1 12 8.4z"/>
  <path fill="#2EB67D" d="M18.8 9.6a2.4 2.4 0 0 1 2.4 2.4 2.4 2.4 0 1 1-2.4-2.4z"/>
  <path fill="#2EB67D" d="M15.6 12a2.4 2.4 0 0 1 2.4 2.4h-2.4a2.4 2.4 0 1 1 0-2.4z"/>
  <path fill="#ECB22E" d="M14.4 18.8a2.4 2.4 0 0 1-2.4 2.4 2.4 2.4 0 1 1 2.4-2.4z"/>
  <path fill="#ECB22E" d="M12 15.6a2.4 2.4 0 0 1-2.4-2.4h2.4a2.4 2.4 0 1 1 0 2.4z"/>
</svg>
